# xmcd
#
# Track frame offsets: 
#        150
#        13852
#        20176
#        39118
#        56479
#        72101
#        98548
#        112303
#        124583
#        133596
#        152807
#        168814
#        192099
#        210511
#        225824
#        242241
#        253567
#
# Disc length: 3558 seconds
#
# Revision: 0
# Processed by: cddbd v1.4PL0 Copyright (c) Steve Scherf et al.
# Submitted via: ExactAudioCopy v0.95a3
#
DISCID=d80de411
DTITLE=Soursob Bob - Living in the Long Grass
DYEAR=2001
DGENRE=Alternative
TTITLE0=Mazda 323 Outback Homesick Blues
TTITLE1=Earring
TTITLE2=Federation Blues (Beer for Breakfast)
TTITLE3=Living in the Long Grass
TTITLE4=Herbal Tea
TTITLE5=North Beach
TTITLE6=Airwaves and Highways
TTITLE7=Email
TTITLE8=Ballad of a Yobbo
TTITLE9=Bonfire
TTITLE10=Instant Karma
TTITLE11=The Ballad of Billy Whyte
TTITLE12=You're not Carolyn
TTITLE13=This Land is Your Land
TTITLE14=Big Night Out, Big Night In
TTITLE15=Blue Poles
TTITLE16=Raskolnikov
EXTD=
EXTT0=
EXTT1=
EXTT2=
EXTT3=
EXTT4=
EXTT5=
EXTT6=
EXTT7=
EXTT8=
EXTT9=
EXTT10=
EXTT11=
EXTT12=
EXTT13=
EXTT14=
EXTT15=
EXTT16=
PLAYORDER=
